<svg xmlns="http://www.w3.org/2000/svg" viewBox="0 0 80 80">
  <rect width="100%" height="100%" fill="#fff"/>
  <path fill="#2D4C91" d="M40 73a33 33 0 1 0 0-66 33 33 0 0 0 0 66Z"/>
  <path fill="#425D9C" d="M63 63.4A32.8 32.8 0 0 1 7 40c0-9 3.7-17.3 9.6-23.2l46.5 46.5Z"/>
  <path fill="#FEFEFE" d="M32.8 24.5v13.3a27 27 0 0 0 .1 2.6v.3a.1.1 0 0 1-.1 0l-2.6-4.3-7.3-11.6c0-.1 0-.2-.2-.2H20v19h2.2V28.4l-.1-1v-.2.1l.2.3.4.8 9.4 15a.4.4 0 0 0 .4.2h2.4v-19h-2.1ZM39.8 24.6v19.1h10v-2.2H42V35h6.6v-2h-6.6v-6.3h7.1v-2h-9.4ZM16 43v-.6a1.5 1.5 0 0 0-.3-1.1 1.4 1.4 0 0 0-1-.5 1.4 1.4 0 0 0-1.1.5 1.5 1.5 0 0 0-.4 1 1.5 1.5 0 0 0 .4 1.2 1.5 1.5 0 0 0 1 .5 1.4 1.4 0 0 0 1.1-.5l.3-.5ZM51.4 26.6h5.4v17h2.1v-17h5.4v-2H51.4v2ZM26.8 56.7h-1v-8.2h1.3l2.8 5 2.9-5H34v8.2h-1v-6.6l-3 5.2h-.2l-3-5.2v6.6Z"/>
  <path fill="#FEFEFE" fill-rule="evenodd" d="M38.6 48.5H40l3 8.1v.1h-1l-.8-2.1h-3.7l-.8 2.1h-1l3-8.2Zm.6 1.1-1.5 4h3l-1.4-4Z" clip-rule="evenodd"/>
  <path fill="#FEFEFE" d="M50.6 53.8c0 2-1.2 3-3.2 3s-3.2-1-3.2-3v-5.3h1v5.3c0 1.3.7 2 2.2 2 1.4 0 2.1-.7 2.1-2v-5.3h1v5.3ZM54 56.7h-1.1v-8.2h1v8.2Z"/>
</svg>