<svg width="612" height="597" viewBox="0 0 612 597" fill="none" xmlns="http://www.w3.org/2000/svg">
<rect x="14.4804" y="14.4804" width="583.156" height="568.274" rx="54.0782" fill="white"/>
<path d="M89.7843 163.023L75.4536 161.131V151.667H121.42L135.751 208.179L138.995 223.185L141.699 208.179L155.895 151.667H201.591V161.131L186.855 163.023L197.67 241.707L208.08 243.194V252.117H162.52V243.194L174.011 241.707L168.333 183.438L165.899 159.643L161.168 181.275L143.457 248.197H125.746L106.819 183.167L100.6 159.508L98.9776 183.438L93.9754 241.707L107.765 243.194V252.117H68.6938V243.194L79.915 241.842L89.7843 163.023ZM246.5 151.261H270.835L301.119 241.842L308.555 243.194V252.117H265.968V243.194L275.567 241.842L270.971 225.619H238.659L234.062 241.978L244.608 243.194V252.117H208.645L208.51 243.194L216.352 241.707L246.5 151.261ZM256.505 174.785L254.477 165.322L252.314 174.921L241.363 215.209H268.132L256.505 174.785ZM361.691 253.199C347.721 253.199 337.266 249.819 330.326 243.059C323.386 236.299 319.916 225.709 319.916 211.288V163.023L311.534 161.131V151.667H355.202V161.131L343.845 163.159V213.181C343.845 233.55 350.921 243.735 365.071 243.735C372.101 243.735 377.239 241.076 380.483 235.759C383.818 230.351 385.486 222.915 385.486 213.451V163.023L373.859 161.131V151.667H409.01V161.131L400.087 163.023V212.234C400.087 226.295 396.617 236.66 389.677 243.329C382.827 249.909 373.498 253.199 361.691 253.199ZM429.305 163.023L418.219 161.131V151.667H463.78V161.131L452.423 163.023V241.842L463.78 243.329V252.117H418.354V243.194L429.305 241.707V163.023ZM494.468 240.896C495.099 241.887 496.541 242.789 498.794 243.6C501.138 244.411 503.481 244.817 505.824 244.817C509.52 244.817 512.314 244.051 514.206 242.518C516.189 240.896 517.181 238.823 517.181 236.299C517.181 233.595 515.919 231.387 513.395 229.675C510.872 227.872 506.726 225.709 500.957 223.185L495.82 220.887C489.961 218.273 485.545 215.119 482.571 211.423C479.687 207.638 478.244 202.861 478.244 197.093C478.244 192.947 479.461 189.251 481.895 186.007C484.328 182.672 487.843 180.058 492.44 178.165C497.037 176.272 502.444 175.326 508.663 175.326C512.99 175.326 516.73 175.596 519.885 176.137C523.039 176.678 526.239 177.354 529.484 178.165C531.647 178.796 533.269 179.157 534.351 179.247V197.633H522.318L518.803 187.223C518.352 186.412 517.271 185.691 515.558 185.06C513.846 184.339 511.908 183.979 509.745 183.979C506.32 183.979 503.616 184.745 501.633 186.277C499.65 187.719 498.659 189.702 498.659 192.226C498.659 195.11 499.786 197.408 502.039 199.121C504.292 200.743 507.897 202.681 512.855 204.934L515.694 206.151C522.994 209.215 528.717 212.55 532.863 216.155C537.009 219.67 539.082 224.537 539.082 230.756C539.082 237.426 536.424 242.924 531.106 247.25C525.788 251.486 517.947 253.604 507.582 253.604C502.805 253.604 498.569 253.199 494.874 252.388C491.178 251.667 487.122 250.675 482.706 249.413L478.244 248.197V230.216H491.088L494.468 240.896ZM81.267 343.506L71.8033 341.748V333.502L98.8424 330.257H99.248L103.169 333.096V430.978L111.956 432.194V441.117H72.6145V432.194L81.267 430.978V343.506ZM121.521 419.486C121.521 411.554 125.532 405.471 133.554 401.234C141.666 396.998 152.301 394.835 165.46 394.745V392.041C165.46 388.797 165.099 386.228 164.378 384.335C163.657 382.442 162.351 381.045 160.458 380.144C158.565 379.153 155.771 378.657 152.076 378.657C147.659 378.657 143.694 379.198 140.178 380.279C136.753 381.271 133.148 382.623 129.363 384.335L124.766 374.601C126.208 373.429 128.552 372.032 131.796 370.41C135.041 368.697 138.917 367.255 143.423 366.084C148.02 364.822 152.797 364.191 157.754 364.191C164.964 364.191 170.597 365.137 174.653 367.03C178.799 368.923 181.729 371.852 183.441 375.818C185.244 379.783 186.145 385.191 186.145 392.041V432.194H193.175V440.712C191.102 441.162 188.218 441.613 184.523 442.064C180.827 442.514 177.673 442.74 175.059 442.74C171.634 442.74 169.336 442.244 168.164 441.252C167.082 440.261 166.542 438.278 166.542 435.304V432.194C164.288 434.898 161.269 437.332 157.483 439.495C153.698 441.568 149.327 442.604 144.37 442.604C140.133 442.604 136.258 441.703 132.743 439.9C129.318 438.008 126.569 435.349 124.496 431.924C122.513 428.409 121.521 424.263 121.521 419.486ZM154.915 430.166C156.537 430.166 158.34 429.716 160.323 428.814C162.305 427.823 164.018 426.651 165.46 425.299V403.803C158.43 403.803 153.202 405.065 149.777 407.589C146.443 410.112 144.775 413.357 144.775 417.323C144.775 421.379 145.676 424.533 147.479 426.786C149.282 429.04 151.76 430.166 154.915 430.166ZM210.793 380.144L202.816 377.71V367.165L227.422 364.191H227.827L231.342 367.03V372.032L231.207 375.142C234.362 372.167 238.373 369.644 243.24 367.571C248.107 365.498 253.199 364.461 258.517 364.461C263.925 364.461 268.161 365.453 271.225 367.436C274.38 369.328 276.633 372.393 277.985 376.629C279.427 380.865 280.148 386.633 280.148 393.934V430.978L287.719 432.059V441.117H250.946V432.194L257.57 430.978V394.069C257.57 389.743 257.255 386.408 256.624 384.065C256.083 381.631 255.092 379.874 253.65 378.792C252.208 377.71 250.135 377.17 247.431 377.17C243.285 377.17 238.598 379.107 233.37 382.983V430.978L240.806 432.194V441.117H203.357V432.194L210.793 430.978V380.144ZM327.386 442.604C318.734 442.604 311.704 439.495 306.296 433.276C300.888 427.057 298.184 417.728 298.184 405.29C298.184 397.81 299.716 390.96 302.781 384.741C305.935 378.432 310.532 373.429 316.571 369.734C322.699 365.948 330.09 364.056 338.743 364.056C341.356 364.056 344.06 364.371 346.854 365.002V343.506L333.876 341.613V332.961L363.754 330.257H364.43L368.486 333.502V432.059H375.516V440.712C368.576 442.064 362.807 442.74 358.211 442.74C355.056 442.74 352.758 442.199 351.316 441.117C349.964 440.126 349.288 438.143 349.288 435.169V431.789C347.125 434.943 344.015 437.557 339.959 439.63C335.904 441.613 331.713 442.604 327.386 442.604ZM335.498 430.437C338.022 430.437 340.23 429.941 342.123 428.95C344.105 427.868 345.683 426.606 346.854 425.164V376.223C346.224 375.412 345.052 374.736 343.339 374.195C341.717 373.655 339.959 373.384 338.067 373.384C333.019 373.384 329.009 375.818 326.034 380.685C323.06 385.462 321.573 393.303 321.573 404.209C321.573 413.132 322.835 419.756 325.358 424.083C327.882 428.319 331.262 430.437 335.498 430.437ZM401.19 442.199C398.126 442.199 395.422 441.117 393.079 438.954C390.825 436.791 389.699 434.132 389.699 430.978C389.699 427.372 391.006 424.443 393.619 422.19C396.233 419.846 399.478 418.675 403.353 418.675C406.869 418.675 409.708 419.801 411.871 422.055C414.034 424.308 415.116 426.967 415.116 430.031C415.116 433.817 413.854 436.791 411.33 438.954C408.806 441.117 405.426 442.199 401.19 442.199Z" fill="url(#paint0_linear_298_919)"/>
<rect x="14.4804" y="14.4804" width="583.156" height="568.274" rx="54.0782" stroke="url(#paint1_linear_298_919)" stroke-width="27.0391" stroke-linejoin="round"/>
<defs>
<linearGradient id="paint0_linear_298_919" x1="68.5586" y1="109.117" x2="545.645" y2="485.917" gradientUnits="userSpaceOnUse">
<stop stop-color="#374898"/>
<stop offset="0.378462" stop-color="#7867CD"/>
<stop offset="0.628896" stop-color="#A768BA"/>
</linearGradient>
<linearGradient id="paint1_linear_298_919" x1="28" y1="28" x2="666.6" y2="442.007" gradientUnits="userSpaceOnUse">
<stop stop-color="#2B0B98"/>
<stop offset="1" stop-color="#7014E8"/>
</linearGradient>
</defs>
</svg>
