<!-- Exported by Character Map UWP -->
<svg height="100%" viewBox="85 263 855 685" width="100%" xmlns="http://www.w3.org/2000/svg" xmlns:xlink="http://www.w3.org/1999/xlink">
  <path d="M372.736,667.648C405.504,667.648 434.517,677.547 459.776,697.344C485.035,717.141 501.077,742.741 507.904,774.144L907.264,774.144C915.456,774.144 922.624,777.216 928.768,783.36C934.912,789.504 938.325,796.672 939.008,804.864C939.691,813.056 937.301,820.565 931.84,827.392C926.379,834.219 919.552,837.632 911.36,837.632L507.904,839.68C501.077,869.717 485.035,894.976 459.776,915.456C434.517,935.936 405.845,946.176 373.76,946.176C341.675,946.176 313.003,935.936 287.744,915.456C262.485,894.976 245.76,869.717 237.568,839.68L116.736,839.68C108.544,839.68 101.376,836.608 95.232,830.464C89.088,824.32 85.6747,817.152 84.992,808.96C84.3093,800.768 86.6987,793.259 92.16,786.432C97.6213,779.605 104.448,775.509 112.64,774.144L237.568,774.144C245.76,742.741 262.485,717.141 287.744,697.344C313.003,677.547 341.333,667.648 372.736,667.648ZM372.736,731.136C357.717,731.136 343.723,735.915 330.752,745.472C317.781,755.029 308.565,767.317 303.104,782.336L301.056,790.528C298.325,802.816 298.325,814.421 301.056,825.344L303.104,833.536C309.931,848.555 319.829,860.501 332.8,869.376C345.771,878.251 359.765,882.347 374.784,881.664C389.803,880.981 403.797,876.203 416.768,867.328C429.739,858.453 438.955,846.507 444.416,831.488L446.464,825.344L444.416,829.44C448.512,817.152 449.195,805.547 446.464,794.624L442.368,778.24C436.907,764.587 427.691,753.323 414.72,744.448C401.749,735.573 387.755,731.819 372.736,733.184ZM651.264,262.144C682.667,262.144 710.997,272.384 736.256,292.864C761.515,313.344 778.24,338.603 786.432,368.64L907.264,368.64C915.456,368.64 922.624,371.712 928.768,377.856C934.912,384 938.325,391.168 939.008,399.36C939.691,407.552 937.301,415.061 931.84,421.888C926.379,428.715 919.552,432.811 911.36,434.176L786.432,434.176C778.24,465.579 761.515,491.179 736.256,510.976C710.997,530.773 682.325,540.672 650.24,540.672C618.155,540.672 589.483,530.773 564.224,510.976C538.965,491.179 522.923,465.579 516.096,434.176L116.736,434.176C108.544,434.176 101.376,431.104 95.232,424.96C89.088,418.816 85.6747,411.648 84.992,403.456C84.3093,395.264 86.6987,387.755 92.16,380.928C97.6213,374.101 104.448,370.688 112.64,370.688L516.096,368.64C522.923,337.237 538.965,311.637 564.224,291.84C589.483,272.043 618.496,262.144 651.264,262.144ZM651.264,327.68C634.88,327.68 620.203,332.117 607.232,340.992C594.261,349.867 585.045,361.813 579.584,376.832L577.536,385.024C574.805,397.312 574.805,408.917 577.536,419.84L581.632,430.08C587.093,443.733 596.309,454.997 609.28,463.872C622.251,472.747 636.587,476.843 652.288,476.16C667.989,475.477 681.984,470.699 694.272,461.824C706.56,452.949 715.435,441.003 720.896,425.984L722.944,419.84L722.944,423.936C725.675,411.648 726.357,400.043 724.992,389.12L720.896,374.784C714.069,359.765 704.512,348.16 692.224,339.968C679.936,331.776 666.283,327.68 651.264,327.68Z" fill="#FFFFFF" fill-opacity="1">
  </path>
</svg>