<svg width="114" height="134" viewBox="0 0 114 134" fill="none" xmlns="http://www.w3.org/2000/svg">
<path d="M8.63064 43.3784C4.07102 43.3762 0.375393 47.0808 0.374268 51.6371L0.379892 86.215C0.381017 90.787 4.07889 94.477 8.63964 94.4759C13.2026 94.4759 16.8994 90.7859 16.8949 86.2162V51.6325C16.8926 47.0774 13.1925 43.3762 8.63064 43.3784ZM75.2228 12.3262L80.9861 1.8018C81.2933 1.25167 81.0919 0.551921 80.535 0.240296C79.9725 -0.0578288 79.2784 0.144671 78.9803 0.698171L73.1584 11.3328C68.2601 9.15255 62.778 7.9308 56.9775 7.93642C51.1928 7.9308 45.7129 9.14917 40.8349 11.317L35.0063 0.709421C34.7036 0.150296 34.0061 -0.0522036 33.456 0.252671C32.8958 0.555296 32.6899 1.25617 33.0015 1.80517L38.7671 12.3228C27.4384 18.1649 19.7839 29.2912 19.7906 42.0655L94.1734 42.0565C94.1756 29.2867 86.5346 18.1829 75.2228 12.3262ZM40.0598 28.5903C38.3486 28.5869 36.9514 27.1942 36.9514 25.4729C36.9514 23.7595 38.3441 22.351 40.0631 22.3522C41.7878 22.351 43.1828 23.7595 43.185 25.4729C43.185 27.1919 41.7866 28.5892 40.0598 28.5903ZM73.929 28.5847C72.21 28.5869 70.8105 27.193 70.8105 25.4673C70.8173 23.7573 72.2078 22.3488 73.9301 22.342C75.6413 22.3477 77.0441 23.7573 77.043 25.4684C77.0464 27.1897 75.648 28.5858 73.929 28.5847ZM20.0944 44.9388L20.1068 98.5282C20.1034 103.403 24.0465 107.338 28.9178 107.338L34.9174 107.34L34.9241 125.637C34.923 130.194 38.6265 133.897 43.176 133.897C47.739 133.897 51.4358 130.19 51.4369 125.632L51.4324 107.339L62.58 107.336L62.5845 125.632C62.5845 130.185 66.2891 133.896 70.8398 133.887C75.4028 133.89 79.1018 130.183 79.1006 125.625L79.095 107.334L85.116 107.329C89.976 107.331 93.9293 103.392 93.9315 98.5158L93.9214 44.9264L20.0944 44.9388ZM113.62 51.6247C113.619 47.0628 109.923 43.366 105.362 43.3683C100.802 43.3638 97.1074 47.0662 97.1074 51.628L97.1141 86.2083C97.113 90.7735 100.808 94.4635 105.371 94.4647C109.931 94.4635 113.625 90.7735 113.626 86.2038L113.62 51.6247Z" fill="#A4C439"/>
</svg>
